<?xml version="1.0" standalone="no"?>
<!DOCTYPE svg PUBLIC "-//W3C//DTD SVG 20010904//EN"
 "http://www.w3.org/TR/2001/REC-SVG-20010904/DTD/svg10.dtd">
<svg version="1.0" xmlns="http://www.w3.org/2000/svg"
 width="3443.000000pt" height="3443.000000pt" viewBox="0 0 3443.000000 3443.000000"
 preserveAspectRatio="xMidYMid meet">
<metadata>
Created by potrace 1.14, written by Peter Selinger 2001-2017
</metadata>
<g transform="translate(0.000000,3443.000000) scale(0.100000,-0.100000)"
fill="#000000" stroke="none">
<path d="M7250 24085 c-47 -8 -98 -21 -115 -29 -16 -9 -34 -16 -39 -16 -4 0
-44 -21 -88 -47 -203 -121 -337 -354 -337 -588 -1 -77 35 -230 70 -299 105
-207 281 -339 513 -383 227 -43 484 54 638 241 197 238 214 564 43 826 -57 87
-165 183 -255 226 -93 45 -116 52 -205 69 -93 18 -112 18 -225 0z"/>
<path d="M4090 23263 c-122 -21 -288 -101 -368 -177 -82 -76 -154 -190 -193
-305 -29 -85 -37 -261 -15 -352 21 -84 63 -182 106 -245 32 -45 148 -164 161
-164 4 0 14 -6 21 -14 12 -11 102 -57 173 -86 67 -28 201 -41 295 -28 255 34
462 192 555 423 47 116 59 187 52 303 -17 312 -247 572 -559 636 -72 15 -171
19 -228 9z"/>
<path d="M10285 23251 c-181 -45 -318 -138 -416 -282 -136 -198 -159 -412 -69
-652 12 -31 28 -63 36 -71 8 -8 14 -19 14 -23 0 -18 111 -143 157 -177 26 -20
53 -39 58 -44 24 -19 147 -72 206 -88 84 -22 234 -22 319 0 36 9 103 35 150
58 71 34 100 56 175 132 94 95 128 149 171 271 29 83 42 234 26 310 -6 28 -14
64 -18 80 -12 56 -82 190 -128 247 -160 200 -443 299 -681 239z"/>
<path d="M1790 20929 c-19 -6 -64 -20 -100 -31 -128 -39 -263 -144 -344 -266
-79 -121 -105 -202 -113 -352 -8 -165 29 -293 126 -434 80 -116 191 -196 347
-252 70 -25 93 -28 199 -29 117 0 245 19 245 36 0 5 7 9 16 9 17 0 125 54 159
80 11 8 47 42 80 75 161 158 234 390 191 606 -18 90 -42 165 -61 189 -7 8 -14
22 -17 30 -9 25 -93 133 -129 165 -77 70 -168 120 -299 165 -47 16 -256 22
-300 9z"/>
<path d="M12540 20921 c-136 -38 -246 -105 -336 -204 -81 -89 -130 -181 -165
-312 -19 -71 -16 -236 5 -315 32 -118 120 -271 191 -331 58 -50 112 -89 122
-89 6 0 18 -6 25 -13 7 -7 45 -25 83 -40 167 -64 322 -64 490 0 39 14 72 29
75 32 3 4 16 11 30 17 14 6 44 27 67 47 24 19 46 37 50 39 9 4 79 90 108 133
141 209 147 492 16 719 -89 153 -261 280 -436 321 -84 20 -245 18 -325 -4z"/>
<path d="M22585 20193 c-465 -31 -862 -140 -1173 -324 -152 -90 -322 -230
-435 -359 -149 -170 -265 -390 -331 -630 -60 -219 -61 -619 -2 -841 83 -315
291 -620 561 -823 123 -93 187 -133 310 -194 107 -53 157 -75 298 -128 63 -24
335 -91 457 -113 111 -20 230 -36 765 -101 138 -17 279 -35 315 -41 91 -14
314 -70 318 -80 2 -5 9 -9 17 -9 19 0 103 -38 179 -83 90 -52 203 -164 249
-247 62 -113 81 -195 82 -350 0 -112 -4 -149 -23 -215 -21 -74 -68 -177 -95
-213 -53 -66 -135 -143 -202 -187 -325 -216 -995 -287 -1645 -174 -466 81
-864 241 -1243 497 l-68 46 -344 -344 c-190 -190 -345 -347 -345 -350 0 -6 17
-18 201 -141 79 -53 171 -111 204 -129 33 -18 65 -36 70 -40 30 -24 310 -155
430 -203 548 -216 1048 -307 1695 -307 476 0 837 45 1175 146 73 22 268 95
281 105 6 5 28 15 50 23 52 18 232 125 306 182 102 77 166 138 235 219 213
255 330 550 364 919 24 259 -15 549 -101 742 -85 189 -146 292 -249 417 -239
292 -532 478 -946 602 -162 49 -437 103 -605 120 -170 16 -651 78 -782 100
-207 35 -405 100 -523 170 -32 19 -60 35 -62 35 -10 0 -110 86 -154 133 -55
59 -102 134 -137 219 -56 139 -35 381 47 543 38 73 88 144 126 178 11 10 37
34 57 53 20 19 40 34 43 34 4 0 21 11 38 24 90 69 293 145 480 181 279 53 833
5 1202 -105 39 -12 95 -28 125 -36 55 -16 312 -114 346 -132 11 -6 69 -34 129
-64 61 -29 128 -63 149 -77 l40 -23 30 34 c17 19 65 79 106 133 41 53 111 143
155 200 210 270 290 377 290 387 0 36 -477 277 -720 363 -44 16 -84 32 -90 35
-5 4 -35 13 -65 20 -30 7 -62 16 -70 20 -28 14 -202 58 -375 94 -364 75 -817
110 -1140 89z"/>
<path d="M14790 17155 l0 -2995 525 -2 525 -3 0 1278 0 1277 655 0 655 0 18
-37 c10 -21 37 -71 60 -111 23 -41 42 -76 42 -78 0 -2 18 -33 40 -69 22 -36
40 -67 40 -70 0 -2 32 -62 72 -132 83 -149 103 -185 151 -273 19 -36 54 -99
77 -140 23 -41 62 -113 88 -160 25 -47 53 -98 63 -115 10 -16 34 -61 55 -100
20 -38 48 -87 61 -107 12 -21 23 -40 23 -42 0 -2 16 -33 36 -68 20 -34 73
-130 119 -213 45 -82 92 -167 103 -187 12 -21 38 -68 58 -105 20 -37 62 -113
92 -168 97 -173 106 -190 157 -283 l50 -92 595 -1 c327 0 607 -2 623 -4 15 -2
27 0 27 5 0 5 -25 51 -56 102 -54 87 -82 136 -108 183 -6 11 -19 31 -27 45
-19 30 -363 609 -472 795 -42 72 -83 139 -92 150 -8 10 -15 25 -15 32 0 7 -4
13 -10 13 -5 0 -10 4 -10 10 0 5 -31 61 -70 124 -38 64 -70 120 -70 126 0 5
-4 10 -8 10 -4 0 -18 19 -30 43 -13 23 -28 51 -35 62 -46 78 -172 290 -232
390 -255 425 -337 567 -333 569 2 1 44 17 93 35 50 19 132 53 183 77 90 42
272 141 282 154 3 3 28 21 55 40 126 84 331 281 391 376 10 16 21 31 24 34 33
31 155 277 189 380 103 318 114 679 30 987 -87 319 -260 580 -519 788 -296
237 -593 364 -1016 437 -129 22 -131 22 -1641 25 l-1513 4 0 -2996z m2953
2162 c197 -33 304 -70 436 -151 227 -137 342 -336 367 -633 15 -175 -43 -394
-140 -538 -144 -211 -345 -349 -603 -415 -179 -46 -277 -50 -1145 -50 l-818 0
0 906 0 905 903 -4 c778 -3 915 -6 1000 -20z"/>
<path d="M26510 17155 l0 -2996 1348 4 c1011 2 1366 6 1422 16 247 40 482 99
585 146 17 7 54 23 84 35 58 23 271 132 311 160 14 9 32 20 40 24 31 14 136
81 150 96 3 3 39 30 80 61 188 140 395 361 484 514 16 28 32 52 36 55 4 3 15
21 25 40 10 19 21 37 24 40 17 14 85 151 115 231 44 117 62 201 92 414 40 294
58 956 44 1605 -8 383 -29 768 -45 835 -36 157 -52 211 -85 293 -50 125 -119
257 -176 338 -79 113 -143 201 -160 220 -11 12 -38 44 -61 71 -181 213 -424
403 -674 528 -180 90 -453 181 -642 215 -281 50 -285 50 -1684 50 l-1313 0 0
-2995z m2625 2107 c189 -34 304 -71 443 -141 120 -61 265 -171 357 -270 22
-24 57 -62 78 -85 160 -171 243 -388 267 -691 41 -531 32 -1702 -16 -2023 -27
-184 -110 -392 -184 -462 -3 -3 -21 -25 -40 -50 -59 -76 -82 -100 -167 -175
-176 -155 -412 -259 -706 -311 -147 -26 -451 -35 -1032 -32 l-570 3 -3 2133
-2 2134 732 -5 c677 -4 741 -6 843 -25z"/>
<path d="M32741 17148 c0 -1652 2 -2998 5 -2993 3 7 185 9 524 8 l520 -3 0
2995 0 2995 -525 0 -525 0 1 -3002z"/>
<path d="M968 17830 c-261 -66 -448 -242 -524 -495 -28 -93 -26 -287 5 -385
13 -41 31 -86 40 -100 9 -14 26 -43 36 -64 31 -61 161 -187 237 -230 37 -20
102 -49 145 -64 69 -24 92 -27 208 -26 119 0 137 3 212 30 45 17 107 46 139
65 83 49 203 171 239 244 17 33 33 62 36 65 17 13 50 155 56 235 15 225 -63
410 -239 570 -61 55 -149 104 -253 140 -58 21 -276 30 -337 15z"/>
<path d="M1860 14743 c-326 -51 -548 -247 -616 -543 -26 -117 -5 -363 35 -403
6 -6 11 -17 11 -23 0 -26 74 -135 133 -197 199 -207 497 -270 762 -160 101 42
273 181 290 234 4 10 10 19 13 19 4 0 16 17 27 38 11 20 22 39 26 42 3 3 18
44 33 91 39 125 45 257 16 369 -22 85 -86 230 -102 230 -4 0 -8 6 -8 13 0 22
-114 132 -186 179 -85 55 -161 84 -272 103 -83 15 -112 16 -162 8z"/>
<path d="M12585 14734 c-134 -24 -278 -103 -371 -204 -65 -70 -81 -92 -111
-153 -45 -90 -62 -150 -74 -259 -27 -250 91 -490 314 -636 117 -75 272 -118
397 -109 373 27 659 328 653 688 -2 103 -22 204 -57 278 -23 50 -64 119 -81
137 -5 6 -24 26 -41 45 -103 113 -241 189 -388 214 -105 18 -135 18 -241 -1z"/>
<path d="M15560 13160 c-70 -17 -127 -53 -156 -100 -27 -44 -28 -50 -28 -185
-1 -127 2 -144 22 -183 27 -50 91 -95 161 -112 88 -21 192 18 246 93 l30 42 0
155 0 155 -30 42 c-52 73 -159 113 -245 93z m139 -106 c41 -34 54 -88 49 -210
-5 -143 -35 -183 -140 -185 -63 -2 -112 24 -129 68 -13 34 -11 260 2 286 24
48 60 67 126 67 52 0 66 -4 92 -26z"/>
<path d="M18110 13163 c-74 -11 -140 -56 -172 -116 -20 -37 -23 -57 -23 -177
0 -116 3 -140 20 -170 30 -53 56 -77 110 -102 106 -47 235 -15 300 75 26 37
29 49 32 134 l3 94 -112 -3 -113 -3 -3 -37 -3 -38 70 0 71 0 0 -34 c0 -40 -25
-88 -54 -106 -59 -37 -144 -30 -193 16 l-28 26 0 148 0 149 33 29 c60 53 162
46 210 -14 23 -29 33 -34 70 -34 50 0 52 10 16 66 -43 67 -148 110 -234 97z"/>
<path d="M18910 13154 c-62 -22 -96 -49 -128 -98 -25 -39 -26 -46 -26 -181 0
-157 8 -184 72 -242 43 -38 139 -68 191 -58 97 17 173 81 192 162 12 51 11
230 -1 272 -33 117 -180 188 -300 145z m164 -95 c46 -36 56 -69 56 -184 0
-163 -33 -215 -137 -215 -58 0 -86 10 -118 44 -17 18 -20 37 -23 151 -4 144 7
183 57 210 41 22 133 19 165 -6z"/>
<path d="M21530 13160 c-90 -19 -142 -63 -155 -133 -9 -49 1 -89 33 -125 35
-39 87 -60 179 -71 96 -12 127 -33 131 -88 3 -36 -1 -44 -28 -63 -28 -20 -41
-22 -124 -18 -74 3 -99 8 -130 27 l-37 23 -29 -27 c-21 -20 -27 -32 -20 -41
18 -20 101 -51 175 -64 60 -11 80 -10 135 4 76 19 106 39 132 86 24 44 20 120
-9 158 -29 39 -88 69 -152 77 -91 11 -141 26 -156 48 -23 33 -18 70 13 100 25
24 36 27 93 27 35 0 85 -8 112 -17 l47 -17 18 24 c9 14 17 29 17 35 0 15 -103
52 -160 57 -27 3 -66 2 -85 -2z"/>
<path d="M22675 13157 c-103 -30 -143 -85 -137 -188 3 -36 55 -94 103 -113 22
-9 75 -21 117 -27 101 -14 122 -28 122 -80 0 -29 -7 -47 -25 -65 -25 -25 -30
-26 -118 -22 -71 2 -102 8 -135 26 l-43 22 -25 -23 c-14 -13 -22 -30 -19 -38
3 -8 38 -28 78 -43 171 -67 350 -19 375 100 10 46 -7 113 -36 142 -30 29 -94
54 -152 59 -107 9 -150 36 -150 94 0 56 34 79 119 79 37 0 84 -7 109 -17 43
-16 43 -16 68 10 13 14 24 29 24 32 0 17 -160 65 -210 64 -14 -1 -43 -6 -65
-12z"/>
<path d="M30426 13155 c-57 -16 -113 -58 -141 -106 -18 -30 -20 -52 -20 -179
0 -128 2 -149 20 -180 49 -82 169 -133 257 -110 153 42 197 121 185 340 -6 93
-9 108 -34 145 -55 77 -171 117 -267 90z m137 -86 c58 -31 62 -42 62 -200 l0
-147 -28 -26 c-80 -74 -209 -45 -237 55 -13 44 -13 194 0 241 16 57 60 88 126
88 31 0 65 -5 77 -11z"/>
<path d="M14870 12869 l0 -290 48 3 47 3 1 120 1 120 134 5 134 5 3 33 3 33
-131 -2 c-72 0 -134 2 -138 6 -4 4 -7 45 -7 91 l0 84 147 0 c80 0 153 3 162 6
10 4 16 18 16 40 l0 34 -210 0 -210 0 0 -291z"/>
<path d="M15985 13147 c-3 -7 -4 -136 -3 -287 l3 -275 45 0 45 0 1 120 1 120
69 3 69 2 70 -125 70 -125 48 0 c26 0 47 4 47 9 0 8 -91 170 -116 206 -22 30
-17 51 15 65 50 20 91 80 91 132 0 57 -36 114 -90 142 -47 25 -57 26 -205 26
-116 0 -157 -3 -160 -13z m319 -71 c42 -18 50 -30 48 -80 -2 -29 -9 -48 -27
-66 -23 -23 -34 -25 -131 -28 -58 -2 -109 0 -113 5 -3 4 -5 47 -3 96 l3 87 95
0 c58 0 107 -5 128 -14z"/>
<path d="M16817 13153 c-4 -3 -7 -134 -7 -290 l0 -284 43 3 42 3 3 123 3 122
68 0 69 0 31 -50 c17 -28 31 -53 31 -56 0 -3 19 -37 41 -75 l41 -69 49 0 c27
0 49 3 49 7 0 3 -20 39 -45 79 -25 39 -45 76 -45 82 0 6 -3 12 -7 14 -8 3 -43
62 -43 72 0 3 14 13 31 22 44 22 76 62 89 110 21 75 -29 152 -119 182 -36 13
-313 17 -324 5z m337 -92 c29 -27 35 -84 13 -111 -33 -42 -59 -50 -164 -50
l-103 0 0 93 c0 52 2 96 4 98 2 2 54 2 114 -1 99 -5 113 -7 136 -29z"/>
<path d="M17407 13154 c-4 -4 -7 -135 -7 -291 l0 -283 208 2 207 3 0 35 0 35
-160 2 -160 1 -3 91 -3 91 141 0 141 0 -3 33 -3 32 -138 3 -138 3 3 85 3 85
160 2 160 2 0 35 0 35 -201 3 c-110 1 -203 -1 -207 -4z"/>
<path d="M18526 13128 c-9 -46 -6 -521 3 -537 5 -7 23 -11 47 -9 l39 3 3 288
3 287 -44 0 c-42 0 -45 -2 -51 -32z"/>
<path d="M19377 13153 c-4 -3 -7 -134 -7 -290 l0 -284 43 3 42 3 3 203 c1 120
6 202 12 202 5 0 17 -12 27 -27 10 -16 20 -30 23 -33 4 -3 22 -27 40 -55 19
-27 37 -51 42 -53 4 -2 8 -10 8 -18 0 -8 4 -14 8 -14 4 0 15 -12 24 -27 9 -16
24 -37 32 -48 9 -11 35 -46 57 -78 40 -56 42 -58 82 -55 l42 3 0 285 0 285
-40 0 -40 0 -3 -202 c-1 -113 -6 -203 -11 -203 -5 0 -46 51 -90 113 -45 61
-87 120 -93 129 -7 9 -38 51 -68 93 -50 70 -57 75 -90 75 -20 0 -40 -3 -43 -7z"/>
<path d="M20173 13088 c-17 -40 -41 -98 -53 -128 -12 -30 -28 -68 -35 -85 -23
-52 -102 -249 -109 -272 -7 -21 -4 -23 31 -23 50 0 55 5 80 70 l20 55 133 0
133 0 10 -30 c6 -16 14 -33 19 -36 5 -3 9 -8 7 -10 -1 -2 1 -14 5 -26 6 -19
14 -23 52 -23 24 0 44 1 44 3 0 8 -44 125 -61 166 -27 59 -31 68 -75 176 -20
50 -43 104 -50 122 -8 17 -14 38 -14 47 0 9 -4 16 -9 16 -5 0 -12 11 -15 25
-5 21 -12 25 -44 25 -38 0 -39 -1 -69 -72z m112 -144 c18 -49 37 -102 44 -117
6 -16 11 -33 11 -38 0 -10 -183 -13 -192 -3 -6 5 18 81 62 197 12 32 27 56 33
54 6 -2 25 -43 42 -93z"/>
<path d="M20620 12870 l0 -290 208 2 207 3 0 35 0 35 -162 3 -163 2 0 250 0
250 -45 0 -45 0 0 -290z"/>
<path d="M21936 13144 c-3 -9 -5 -107 -3 -218 3 -215 7 -235 59 -282 140 -128
378 -63 403 110 3 22 5 122 3 221 l-3 180 -45 0 -45 0 -5 -218 -5 -219 -33
-29 c-28 -25 -40 -29 -93 -29 -63 0 -111 19 -126 49 -4 9 -10 113 -13 231 l-5
215 -41 3 c-32 2 -43 -1 -48 -14z"/>
<path d="M23047 13152 c-3 -4 -3 -20 0 -35 l6 -28 78 2 c44 1 82 0 85 -3 3 -3
6 -118 7 -254 l2 -249 45 0 45 0 2 248 c0 137 4 251 7 254 3 3 42 6 88 7 l83
1 3 33 3 32 -225 0 c-124 0 -227 -3 -229 -8z"/>
<path d="M23671 13097 c-16 -35 -32 -74 -36 -88 -4 -13 -16 -42 -26 -64 -36
-81 -139 -341 -139 -353 0 -7 16 -12 40 -12 39 0 41 2 65 54 14 30 25 60 25
65 0 7 46 11 134 11 l134 0 24 -65 23 -65 47 0 c27 0 48 2 48 5 0 5 -80 197
-122 294 -11 24 -28 67 -39 95 -25 65 -31 80 -57 139 -20 43 -25 47 -57 47
-34 0 -37 -3 -64 -63z m92 -104 c9 -27 27 -79 41 -117 14 -38 26 -75 26 -82 0
-11 -22 -14 -95 -14 -69 0 -95 3 -95 13 0 14 66 200 81 228 15 29 25 23 42
-28z"/>
<path d="M24116 13152 c-3 -5 -4 -134 -3 -288 l2 -279 45 0 45 0 3 245 c2 135
0 264 -3 288 -6 41 -7 42 -45 42 -21 0 -41 -4 -44 -8z"/>
<path d="M24368 13154 c-10 -9 -9 -548 0 -562 13 -19 87 -12 88 8 1 8 2 102 3
209 l1 194 78 -105 c42 -58 111 -153 152 -212 l75 -106 45 3 45 2 3 288 3 287
-44 0 c-42 0 -45 -2 -51 -31 -3 -17 -6 -110 -6 -205 0 -113 -4 -174 -10 -174
-6 0 -14 8 -17 17 -4 9 -12 24 -19 33 -26 32 -161 218 -204 280 -25 36 -49 68
-55 72 -12 9 -79 11 -87 2z"/>
<path d="M25171 13098 c-13 -35 -32 -81 -41 -103 -10 -22 -37 -87 -60 -145
-24 -58 -56 -136 -71 -174 -39 -93 -38 -98 13 -94 42 3 43 4 68 65 l25 63 131
0 131 0 24 -62 25 -63 47 -3 c50 -3 52 -2 38 26 -5 9 -24 53 -41 97 -17 44
-35 89 -40 100 -25 56 -52 120 -90 215 -57 144 -55 140 -98 140 -36 0 -38 -1
-61 -62z m116 -178 c24 -62 43 -119 43 -127 0 -10 -22 -13 -94 -13 -52 0 -97
3 -100 8 -2 4 8 37 24 74 16 36 36 92 46 122 10 31 22 55 28 53 6 -2 30 -54
53 -117z"/>
<path d="M25625 13148 c-3 -7 -4 -137 -3 -288 l3 -275 165 0 c185 0 203 5 254
68 55 69 34 171 -43 209 -31 15 -30 25 4 44 27 15 65 72 65 98 0 12 -10 42
-22 66 -37 73 -72 84 -261 88 -124 3 -158 1 -162 -10z m325 -84 c14 -13 21
-35 23 -62 1 -34 -4 -45 -28 -67 -28 -23 -37 -25 -132 -25 l-103 0 0 91 0 91
110 -4 c95 -3 112 -6 130 -24z m-2 -244 c29 -18 32 -24 32 -68 0 -77 -21 -90
-145 -92 -55 -1 -106 -1 -112 -1 -10 1 -13 26 -13 91 l0 90 103 0 c84 0 108
-4 135 -20z"/>
<path d="M26210 12871 l0 -291 210 0 210 0 0 40 0 41 -165 -3 -165 -3 -2 250
-3 250 -42 3 -43 3 0 -290z"/>
<path d="M26746 13152 c-3 -5 -4 -134 -3 -288 l2 -279 208 -3 208 -2 -3 37 -3
38 -153 2 c-85 1 -156 4 -159 6 -2 3 -5 43 -6 89 l-1 83 137 3 137 3 0 34 0
34 -137 3 -136 3 0 78 c1 43 4 81 7 84 3 3 74 6 158 7 l153 1 0 35 0 35 -202
3 c-111 1 -204 -1 -207 -6z"/>
<path d="M27525 13147 c-3 -7 -4 -136 -3 -287 l3 -275 129 -3 c156 -3 209 11
272 73 46 47 64 110 64 224 -1 141 -38 214 -131 256 -52 23 -68 25 -193 25
-101 0 -138 -3 -141 -13z m300 -79 c14 -6 35 -26 46 -45 19 -30 20 -46 17
-167 -3 -132 -4 -135 -31 -160 -36 -33 -76 -42 -169 -38 l-78 4 0 209 0 209
95 0 c52 0 106 -5 120 -12z"/>
<path d="M28137 13153 c-4 -3 -7 -134 -7 -290 l0 -283 210 0 210 0 0 40 0 41
-165 -3 -165 -3 0 92 0 92 138 3 137 3 0 30 0 30 -137 3 -138 3 0 84 0 85 165
0 165 0 0 40 0 40 -203 0 c-112 0 -207 -3 -210 -7z"/>
<path d="M28609 13155 c-5 -4 11 -56 36 -120 42 -105 55 -140 55 -148 0 -5 6
-23 14 -40 7 -18 28 -72 46 -122 52 -141 56 -147 93 -143 28 3 33 9 54 63 13
33 28 69 33 80 15 33 149 399 152 415 2 12 -7 15 -41 15 l-45 0 -43 -125 c-24
-69 -57 -167 -74 -217 -17 -51 -34 -93 -39 -93 -5 0 -16 21 -25 48 -9 26 -42
124 -73 217 l-57 170 -40 3 c-23 2 -43 0 -46 -3z"/>
<path d="M29206 13152 c-3 -5 -4 -134 -3 -288 l2 -279 208 -3 208 -3 -3 38 -3
38 -158 0 c-86 0 -157 3 -157 8 -1 4 -1 44 -1 90 l-1 82 136 3 136 3 0 34 0
34 -137 3 -136 3 0 78 c0 42 3 80 6 83 3 4 64 5 135 5 168 -2 182 1 182 45 l0
34 -204 0 c-113 0 -207 -4 -210 -8z"/>
<path d="M29745 13147 c-3 -7 -4 -136 -3 -287 l3 -275 208 -3 208 -2 -3 37 -3
38 -153 2 c-85 1 -156 4 -159 6 -2 3 -4 116 -3 251 l1 246 -46 0 c-28 0 -48
-5 -50 -13z"/>
<path d="M30870 12869 l0 -290 48 3 47 3 1 110 2 110 113 5 c98 5 120 9 158
31 52 29 91 93 91 147 0 58 -44 120 -103 148 -48 22 -65 24 -204 24 l-153 0 0
-291z m344 186 c38 -35 37 -96 -3 -136 -28 -27 -35 -29 -115 -30 -106 -2 -114
-2 -123 0 -5 0 -8 44 -8 96 l0 95 111 0 c104 0 113 -2 138 -25z"/>
<path d="M31446 13152 c-3 -5 -4 -134 -3 -288 l2 -279 41 -2 c39 -2 42 0 48
29 3 17 6 101 6 187 l1 156 73 -145 c67 -133 75 -145 102 -147 16 -1 34 1 40
5 7 4 43 68 80 142 l69 135 3 -183 2 -183 48 3 47 3 0 285 0 285 -47 3 c-33 2
-48 -1 -48 -9 0 -23 -172 -359 -184 -359 -6 0 -52 82 -102 183 l-91 182 -40 3
c-23 2 -44 -1 -47 -6z"/>
<path d="M32185 13148 c-3 -8 -4 -137 -3 -288 l3 -275 205 0 205 0 0 35 0 35
-155 2 c-85 1 -158 2 -162 3 -5 0 -8 41 -8 90 l0 90 140 0 140 0 0 35 0 35
-140 0 -141 0 3 85 3 86 157 0 c165 1 165 1 164 49 l-1 25 -203 3 c-158 2
-204 0 -207 -10z"/>
<path d="M32725 13147 c-3 -7 -4 -136 -3 -287 l3 -275 43 -3 42 -3 0 205 c0
118 4 206 9 206 5 0 39 -42 75 -92 36 -51 72 -102 80 -113 84 -114 136 -190
136 -197 0 -4 23 -8 50 -8 l50 0 0 291 0 290 -42 -3 -43 -3 -5 -210 -5 -210
-71 95 c-38 52 -102 141 -142 197 -39 55 -79 108 -88 117 -18 19 -83 21 -89 3z"/>
<path d="M33315 13149 c-4 -5 -4 -21 -1 -34 6 -23 11 -24 92 -27 l85 -3 2
-250 2 -250 48 -3 47 -3 0 255 0 255 88 3 87 3 3 33 3 32 -225 0 c-147 0 -227
-4 -231 -11z"/>
<path d="M4175 12470 c-181 -27 -372 -140 -462 -274 -15 -22 -30 -43 -33 -46
-10 -10 -58 -115 -74 -164 -103 -306 52 -670 349 -816 117 -58 190 -75 320
-74 114 2 206 24 310 76 85 43 182 128 242 212 12 17 26 36 30 41 15 18 61
129 77 187 80 282 -54 607 -316 765 -68 42 -179 80 -265 93 -76 11 -106 11
-178 0z"/>
<path d="M10245 12436 c-99 -33 -133 -49 -194 -92 -129 -88 -204 -184 -263
-334 -5 -14 -10 -27 -10 -30 0 -3 -7 -27 -15 -55 -18 -60 -20 -222 -4 -285 18
-70 73 -210 82 -210 5 0 9 -6 9 -13 0 -14 97 -127 135 -158 11 -9 31 -26 44
-38 26 -23 164 -91 184 -91 7 0 17 -4 23 -9 12 -12 139 -31 205 -31 98 0 181
21 288 72 89 42 115 61 185 131 87 88 134 165 177 292 20 59 24 89 23 195 0
109 -4 135 -27 204 -76 219 -219 364 -441 444 -60 22 -91 26 -201 29 -114 2
-138 -1 -200 -21z"/>
<path d="M14802 12225 c3 -14 1038 -15 9488 -15 5217 0 9484 2 9483 5 -2 3 -3
10 -3 15 0 7 -3169 10 -9486 10 -8453 0 -9485 -2 -9482 -15z"/>
<path d="M7201 11569 c-152 -39 -286 -127 -394 -258 -32 -39 -95 -174 -113
-241 -23 -87 -24 -243 -1 -337 14 -61 85 -217 106 -233 3 -3 23 -26 44 -52 71
-88 191 -167 321 -210 83 -28 247 -35 341 -15 85 18 214 77 276 126 97 77 189
200 228 304 107 290 14 609 -233 796 -165 125 -381 170 -575 120z"/>
</g>
</svg>
